<svg xmlns="http://www.w3.org/2000/svg" enable-background="new 0 0 24 24" viewBox="0 0 24 24"><path fill="#b2b1ff" d="M18 20V3a1 1 0 0 0-1.497-.867L13.5 3.853l-3.003-1.72a1 1 0 0 0-.994 0L6.5 3.853l-3.003-1.72A1 1 0 0 0 2 3v17a2 2 0 0 0 2 2h16a2 2 0 0 1-2-2z"/><path fill="#6563ff" d="M21.999 14v6a2 2 0 1 1-4 0v-8h2a2 2 0 0 1 2 2zM10.5 16.5H8a1 1 0 0 1 0-2h2.5a.5.5 0 0 0 0-1h-1a2.5 2.5 0 0 1 0-5H12a1 1 0 1 1 0 2H9.5a.5.5 0 0 0 0 1h1a2.5 2.5 0 0 1 0 5z"/><path fill="#6563ff" d="M10 10.5a1 1 0 0 1-1-.999V8a1 1 0 1 1 2 0v1.5a1 1 0 0 1-.999 1H10zm0 7.5a1 1 0 0 1-1-.999V15.5a1 1 0 1 1 2 0V17a1 1 0 0 1-.999 1H10z"/></svg>